<svg xmlns="http://www.w3.org/2000/svg" viewBox="0 0 400 60" width="400" height="60">
  <!-- ShieldCheck icon from Lucide, scaled to h-8 w-8 (32px) -->
  <g transform="translate(0, 14)">
    <path d="M20 13c0 5-4 8-8 12s-8 7-8 12h16c0-5 4-8 8-12s8-7 8-12H20z" fill="none" stroke="#1e3a8a" stroke-width="2" stroke-linecap="round" stroke-linejoin="round"/>
    <path d="M12 22l-2-2 2-2" fill="none" stroke="#1e3a8a" stroke-width="2" stroke-linecap="round" stroke-linejoin="round"/>
    <path d="M16 2L8 6v6c0 5.55 3.84 10.74 9 12 5.16-1.26 9-6.45 9-12V6l-8-4z" fill="none" stroke="#1e3a8a" stroke-width="2" stroke-linecap="round" stroke-linejoin="round"/>
    <path d="M9 12l2 2 4-4" fill="none" stroke="#1e3a8a" stroke-width="2" stroke-linecap="round" stroke-linejoin="round"/>
  </g>
  
  <!-- Text "Privacy Film Ottawa" -->
  <text x="50" y="38" font-family="system-ui, -apple-system, sans-serif" font-size="24" font-weight="700" fill="#111827" letter-spacing="-0.025em">
    Privacy Film Ottawa
  </text>
</svg>
