<svg xmlns="http://www.w3.org/2000/svg" viewBox="0 0 400 60" width="1200" height="180">
  <defs>
    <style>
      @import url('https://fonts.googleapis.com/css2?family=Inter:wght@700&amp;display=swap');
    </style>
  </defs>
  <!-- ShieldCheck icon from Lucide, exact paths -->
  <!-- text-blue-900 is #1e3a8a -->
  <g transform="translate(10, 14) scale(1.5)">
    <path d="M20 13c0 5-3.5 7.5-7.66 8.95a1 1 0 0 1-.67-.01C7.5 20.5 4 18 4 13V6a1 1 0 0 1 1-1c2 0 4.5-1.2 6.24-2.72a1.17 1.17 0 0 1 1.52 0C14.51 3.81 17 5 19 5a1 1 0 0 1 1 1z" fill="none" stroke="#1e3a8a" stroke-width="2" stroke-linecap="round" stroke-linejoin="round"/>
    <path d="m9 12 2 2 4-4" fill="none" stroke="#1e3a8a" stroke-width="2" stroke-linecap="round" stroke-linejoin="round"/>
  </g>
  
  <!-- Text "Privacy Film Ottawa" -->
  <!-- text-gray-900 is #111827 -->
  <!-- font-bold, text-xl -->
  <text x="60" y="40" font-family="'Inter', -apple-system, BlinkMacSystemFont, 'Segoe UI', Roboto, Helvetica, Arial, sans-serif" font-size="28" font-weight="bold" fill="#111827" letter-spacing="-0.025em">
    Privacy Film Ottawa
  </text>
</svg>
